<?xml version="1.0" encoding="UTF-8"?>
<svg version="1.1" xmlns="http://www.w3.org/2000/svg" width="500" height="500">
<path d="M0 0 C1.36105834 0.83121777 2.70036402 1.70068993 4 2.625 C4.99 3.285 5.98 3.945 7 4.625 C7 5.285 7 5.945 7 6.625 C7.66 6.625 8.32 6.625 9 6.625 C9 7.285 9 7.945 9 8.625 C9.66 8.625 10.32 8.625 11 8.625 C12.21875 10.1640625 12.21875 10.1640625 13.5 12.25 C13.9228125 12.92289063 14.345625 13.59578125 14.78125 14.2890625 C17.75240856 19.98378308 18.38756331 25.06821631 18.375 31.375 C18.37411377 32.1705127 18.37322754 32.96602539 18.37231445 33.78564453 C18.21131494 41.79966106 16.27911206 48.44525203 11 54.625 C10.34 54.625 9.68 54.625 9 54.625 C9 55.615 9 56.605 9 57.625 C8.34 57.625 7.68 57.625 7 57.625 C5.80526544 63.25732005 5.85199893 68.77273377 5.875 74.5 C5.87113281 75.45519531 5.86726563 76.41039062 5.86328125 77.39453125 C5.87083107 82.89834794 
6.18913618 88.18062861 7 93.625 C8.17296631 93.72989746 8.17296631 93.72989746 9.36962891 93.83691406 C96.54845694 101.72422039 96.54845694 101.72422039 130 118.625 C130 119.285 130 119.945 130 120.625 C130.556875 120.728125 131.11375 120.83125 131.6875 120.9375 C134.4769101 121.76678408 136.6139064 122.96799056 139 124.625 C139 125.285 139 125.945 139 126.625 C139.8353125 126.9653125 139.8353125 126.9653125 140.6875 127.3125 C143.6865221 129.01464768 145.64499245 131.10177762 148 133.625 C148.47566406 134.1303125 148.95132812 134.635625 149.44140625 135.15625 C157.0692423 143.60064291 161.1932525 152.64270082 164 163.625 C164.19851563 164.39585937 164.39703125 165.16671875 164.6015625 165.9609375 C165.17451729 169.79187052 165.10463779 173.57054739 165.0625 177.4375 C165.05798828 178.22576172 165.05347656 179.01402344 165.04882812 179.82617188 C165.03711312 181.75914761 165.01917998 183.69208393 165 185.625 C165.64324219 185.60405273 166.28648437 185.58310547 166.94921875 185.56152344 C184.00379682 185.08102712 198.48230815 185.86615408 214 193.625 C214 194.285 214 194.945 214 195.625 C214.86625 195.9653125 214.86625 195.9653125 215.75 196.3125 C223.17961636 200.64644288 226.5762934 210.56722116 228.72363281 218.43066406 C234.53794484 241.28878502 234.76276031 268.39524185 222.57421875 289.2109375 C216.20155306 298.98341242 216.20155306 298.98341242 210 300.625 C210 301.285 210 301.945 210 302.625 C208.67413531 303.42911238 207.33876169 304.21754807 206 305 C204.88625 305.66128906 204.88625 305.66128906 203.75 306.3359375 C196.54917234 309.71132546 189.80965722 309.89003523 182 309.75 C181.03449219 309.74097656 180.06898438 309.73195313 179.07421875 309.72265625 C176.71587901 309.69930635 174.35807714 309.66656047 172 309.625 C171.86464844 310.32882812 171.72929687 311.03265625 171.58984375 311.7578125 C169.22039769 322.62605012 164.60753445 332.64309485 158 341.625 C157.34 341.625 156.68 341.625 156 341.625 C156 342.285 156 342.945 156 343.625 C155.34 343.625 154.68 343.625 154 343.625 C154 344.285 154 344.945 154 345.625 C153.34 345.625 152.68 345.625 152 345.625 C151.67 346.615 151.34 347.605 151 348.625 C150.34 348.625 149.68 348.625 149 348.625 C149 349.285 149 349.945 149 350.625 C146 352.625 146 352.625 143 352.625 C143 353.285 143 353.945 143 354.625 C125.75757263 364.3238654 104.38371706 367.44035976 85 369.625 C83.64582114 369.78896185 82.29165493 369.95302815 80.9375 370.1171875 C53.72826577 373.29878547 26.56738484 373.9348847 -0.79101562 373.82061768 C-4.11319425 373.8096504 -7.43533278 373.81015392 -10.7575264 373.81075573 C-14.00568778 373.8104827 -17.25382329 373.80498467 -20.50197601 373.79775429 C-22.02798011 373.79461487 -23.55398706 373.79261155 -25.0799942 373.79186058 C-32.68008727 373.78399075 -40.20532161 373.64754552 -47.77099609 372.85734558 C-50.37577089 372.58583062 -52.96859589 372.45582595 -55.5859375 372.37890625 C-56.5253418 372.34748535 -57.46474609 372.31606445 -58.43261719 372.28369141 C-59.88909668 372.23607666 -59.88909668 372.23607666 -61.375 372.1875 C-78.59570861 371.53256774 -95.5089317 369.71538504 -112.52050781 367.00732422 C-114.99763833 366.62536416 -117.47728249 366.27813161 -119.9609375 365.94140625 C-145.3550486 362.45579336 -171.87803006 356.93530365 -193 341.625 C-193 340.965 -193 340.305 -193 339.625 C-193.66 339.625 -194.32 339.625 -195 339.625 C-206.12001809 326.32034119 -212.28878672 312.21473671 -212 294.625 C-212.58265625 294.67140625 -213.1653125 294.7178125 -213.765625 294.765625 C-223.23641665 295.18257809 -231.77666906 292.19351719 -240 287.625 C-240 286.965 -240 286.305 -240 285.625 C-240.70125 285.439375 -241.4025 285.25375 -242.125 285.0625 C-250.56720023 280.84139989 -255.11399216 270.67181727 -258.265625 262.23828125 C-263.61605146 244.20885124 -264.00191548 219.55520801 -255 202.625 C-252.87628578 199.43705315 -250.68619607 196.36412604 -248 193.625 C-247.34 193.625 -246.68 193.625 -246 193.625 C-246 192.965 -246 192.305 -246 191.625 C-234.68642199 182.98335211 -222.16609349 181.57557024 -208.4375 181.5 C-207.37486938 181.49286987 -207.37486938 181.49286987 -206.29077148 181.4855957 C-201.44902202 181.50074195 -196.79424154 181.9455012 -192 182.625 C-192.04125 181.7175 -192.0825 180.81 -192.125 179.875 C-192.07253541 166.86378083 -187.39220685 155.24119028 -182 143.625 C-181.34 143.625 -180.68 143.625 -180 143.625 C-179.72671875 142.88507813 -179.4534375 142.14515625 -179.171875 141.3828125 C-173.04400631 126.96189486 -155.44677531 116.02997669 -141.609375 110.1953125 C-139.45021675 109.36221263 -137.28300684 108.54942832 -135.10546875 107.765625 C-132.93856589 106.96973112 -130.80201375 106.08831349 -128.6953125 105.14453125 C-124.42305322 103.38775656 -120.15715577 102.19784156 -115.6875 101.0625 C-114.84227783 100.84489014 -113.99705566 100.62728027 -113.1262207 100.40307617 C-107.44759834 98.95618531 -101.78475333 97.57967334 -96 96.625 C-95.06671875 96.46386719 -94.1334375 96.30273438 -93.171875 96.13671875 C-73.90717613 93.08880142 -54.47443699 92.27689686 -35 92.625 C-35.05233723 88.47817679 -35.14752299 84.33336327 -35.25 80.1875 C-35.26417969 79.02283203 -35.27835938 77.85816406 -35.29296875 76.65820312 C-35.49798024 69.38029506 -36.53443008 64.01922056 -40 57.625 C-40.67834587 55.96305262 -41.35199575 54.29901097 -42 52.625 C-42.66 52.625 -43.32 52.625 -44 52.625 C-50.10666194 42.44723011 -51.75830483 32.42832484 -49.41796875 20.7109375 C-46.36127797 11.91771746 -39.19025767 3.99313742 -31 -0.375 C-21.94796751 -4.09109755 -8.81802831 -4.42205857 0 0 Z M-23.8125 9.625 C-24.78832031 9.99625 -25.76414063 10.3675 -26.76953125 10.75 C-27.50558594 11.03875 -28.24164063 11.3275 -29 11.625 C-29 12.285 -29 12.945 -29 13.625 C-29.639375 13.893125 -30.27875 14.16125 -30.9375 14.4375 C-33.33131686 15.51167752 -33.33131686 15.51167752 -34 18.625 C-34.66 18.625 -35.32 18.625 -36 18.625 C-39.42546443 26.11457478 -39.03335117 32.56984091 -38 40.625 C-37.34 40.625 -36.68 40.625 -36 40.625 C-35.896875 41.181875 -35.79375 41.73875 -35.6875 42.3125 C-34.85821592 45.1019101 -33.65700944 47.2389064 -32 49.625 C-31.34 49.625 -30.68 49.625 -30 49.625 C-29.53311575 50.91360053 -29.07717129 52.20616332 -28.625 53.5 C-28.36976563 54.21929687 -28.11453125 54.93859375 -27.8515625 55.6796875 C-25.39473803 64.17714461 -24.63223911 72.42884204 -24.375 81.25 C-24.33632812 82.34957031 -24.29765625 83.44914062 -24.2578125 84.58203125 C-24.16456918 87.26277668 -24.08124654 89.94386416 -24 92.625 C-17.73 92.625 -11.46 92.625 -5 92.625 C-4.92153147 86.19058061 -5.03665344 79.96484928 -5.6875 73.5625 C-6.58231595 61.7872409 -2.28362491 52.81595441 4.25 43.3125 C7.61822238 38.13987277 7.49785084 32.6444692 7 26.625 C5.44108209 19.54235721 1.8373143 15.73789363 -3.9375 11.4375 C-10.99012781 7.26349578 -16.21838205 6.6971473 -23.8125 9.625 Z M-87 106.625 C-87.99805664 106.76574951 -88.99611328 106.90649902 -90.02441406 107.05151367 C-92.44687575 107.41976583 -94.84540797 107.84259578 -97.25 108.3125 C-98.10078125 108.47766113 -98.9515625 108.64282227 -99.828125 108.81298828 C-115.05808052 111.93147663 -130.19503613 116.39130492 -144 123.625 C-144 124.285 -144 124.945 -144 125.625 C-144.94875 125.934375 -145.8975 126.24375 -146.875 126.5625 C-149.86080408 127.49894742 -149.86080408 127.49894742 -152 128.625 C-152 129.285 -152 129.945 -152 130.625 C-153.65 131.285 -155.3 131.945 -157 132.625 C-157 133.285 -157 133.945 -157 134.625 C-157.66 134.625 -158.32 134.625 -159 134.625 C-159 135.285 -159 135.945 -159 136.625 C-159.85078125 136.96144531 -159.85078125 136.96144531 -160.71875 137.3046875 C-167.88062525 141.44974544 -172.80073153 150.20269715 -176 157.625 C-176.556875 158.8625 -176.556875 158.8625 -177.125 160.125 C-179.44293334 166.74766669 -180.3244968 172.90905273 -180.5625 179.875 C-180.62270342 181.44285065 -180.68638498 183.01057245 -180.75390625 184.578125 C-180.78979858 185.60147949 -180.78979858 185.60147949 -180.82641602 186.64550781 C-181.01372615 188.78152836 -181.25148666 190.60975087 -182 192.625 C-186.10440724 193.99313575 -190.60336633 194.27663415 -194.81469727 193.1315918 C-208.93770336 189.85762937 -224.87417648 192.10798946 -237.125 199.5625 C-240.54662796 201.81225172 -241.72417368 203.73833322 -243 207.625 C-243.66 207.625 -244.32 207.625 -245 207.625 C-251.1814727 225.96816085 -253.01054658 246.4742147 -245 264.625 C-240.35968175 272.15544202 -233.9597183 279.22524287 -225.3984375 282.1015625 C-220.33932901 283.20566761 -215.16110302 283.39684148 -210 283.625 C-209.79246094 282.90957031 -209.58492187 282.19414062 -209.37109375 281.45703125 C-207.10810133 274.13781308 -204.17971184 267.88104974 -200.390625 261.2421875 C-198.84359351 258.82458921 -198.84359351 258.82458921 -199 256.625 C-198.34 256.625 -197.68 256.625 -197 256.625 C-196.34 254.975 -195.68 253.325 -195 251.625 C-194.34 251.625 -193.68 251.625 -193 251.625 C-191.31237149 249.9795622 -189.6459651 248.31211423 -188 246.625 C-187.34 246.295 -186.68 245.965 -186 245.625 C-186 244.965 -186 244.305 -186 243.625 C-180.74818346 241.41370883 -175.61504182 240.61429247 -170 241.625 C-165.68733175 243.89595654 -162.69610305 246.58084543 -160 250.625 C-158.08055224 257.1511224 -158.2390219 264.41279928 -161 270.625 C-162.31542376 272.63682457 -163.6459068 274.63899663 -165 276.625 C-165 277.285 -165 277.945 -165 278.625 C-165.556875 278.893125 -166.11375 279.16125 -166.6875 279.4375 C-169.21225334 280.73399496 -171.63714484 282.04976323 -174 283.625 C-174 284.285 -174 284.945 -174 285.625 C-175.32 285.625 -176.64 285.625 -178 285.625 C-178 286.285 -178 286.945 -178 287.625 C-178.66644531 287.74875 -179.33289063 287.8725 -180.01953125 288 C-183.6095992 288.75283207 -187.14539856 289.67677498 -190.6875 290.625 C-191.36361328 290.80289063 -192.03972656 290.98078125 -192.73632812 291.1640625 C-196.4584153 292.14510992 -196.4584153 292.14510992 -200 293.625 C-200.67063258 309.69534376 -196.10266706 320.1611497 -185.515625 332.2265625 C-184.09872025 333.85104091 -184.09872025 333.85104091 -182 333.625 C-182 334.285 -182 334.945 -182 335.625 C-156.12790873 349.07093356 -127.83574727 354.35331344 -99 357.625 C-97.58976055 357.79880539 -96.17960882 357.97332363 -94.76953125 358.1484375 C-86.00634966 359.20826879 -77.2769761 359.92428625 -68.45605469 360.28344727 C-67.71387695 360.31494873 -66.97169922 360.3464502 -66.20703125 360.37890625 C-65.23987183 360.41479858 -65.23987183 360.41479858 -64.25317383 360.45141602 C-62.39043015 360.59492135 -60.53616189 360.84407928 -58.68847656 361.12060547 C-55.02521849 361.6215514 -51.47192156 361.83126847 -47.77734375 361.94140625 C-47.0920459 361.96227798 -46.40674805 361.98314972 -45.70068359 362.00465393 C-43.44640201 362.07093316 -41.19202206 362.1300113 -38.9375 362.1875 C-38.15222931 362.20834656 -37.36695862 362.22919312 -36.55789185 362.25067139 C6.67500909 363.37732888 51.03941729 364.47865494 93.77099609 357.00732422 C95.9758161 356.62914808 98.18359655 356.28181608 100.39453125 355.94140625 C115.67689561 353.52676505 131.89988053 349.89345001 144 339.625 C144 338.965 144 338.305 144 337.625 C144.66 337.625 145.32 337.625 146 337.625 C146 336.965 146 336.305 146 335.625 C146.66 335.625 147.32 335.625 148 335.625 C149.40941913 333.60812422 150.68633007 331.61206667 151.9375 329.5 C152.28490234 328.93023437 152.63230469 328.36046875 152.99023438 327.7734375 C157.34497843 320.55653587 161.52650378 313.31231237 161 304.625 C158.35261084 303.1643715 157.10551666 302.625 154 302.625 C154 301.965 154 301.305 154 300.625 C152.40606136 299.32022781 152.40606136 299.32022781 150.375 298 C145.20752335 294.26436413 141.03846461 289.74039383 139 283.625 C138.34 283.625 137.68 283.625 137 283.625 C136.87753906 282.93792969 136.75507813 282.25085938 136.62890625 281.54296875 C136.03202534 278.56511743 136.03202534 278.56511743 135.02734375 275.48828125 C131.15972762 262.88733837 129.40731932 248.98346023 135 236.625 C135.391875 235.449375 135.78375 234.27375 136.1875 233.0625 C136.5896875 231.8559375 136.5896875 231.8559375 137 230.625 C137.66 230.625 138.32 230.625 139 230.625 C139 229.965 139 229.305 139 228.625 C143.90411771 226.54074997 147.92709416 226.03152262 153 227.625 C155.95688964 229.45150203 158.41927006 231.46354011 160 234.625 C160.66 234.625 161.32 234.625 162 234.625 C162.2475 235.429375 162.495 236.23375 162.75 237.0625 C163.67735707 239.70546765 164.64749685 241.95349756 165.875 244.4375 C173.38698388 261.14955403 173.19555747 279.67717028 173 297.625 C182.87112673 299.76258554 191.71967229 298.7715294 201 294.625 C212.96794514 286.49948791 217.9413927 275.14222065 220.59204102 261.30395508 C223.49470529 242.24295265 220.77989909 221.79484863 210 205.625 C209.34 205.625 208.68 205.625 208 205.625 C208 204.965 208 204.305 208 203.625 C194.05051644 196.16112048 180.46724269 196.39842839 164.96875 197.015625 C163.298125 197.0465625 163.298125 197.0465625 161.59375 197.078125 C160.59021484 197.11067383 159.58667969 197.14322266 158.55273438 197.17675781 C156 196.625 156 196.625 154.1550293 194.23046875 C152.92531306 191.4565242 152.77547876 190.30420676 153.3125 187.375 C155.17186105 174.83464271 153.25683771 163.15942061 148 151.625 C147.34 151.625 146.68 151.625 146 151.625 C145.34 149.645 144.68 147.665 144 145.625 C143.34 145.625 142.68 145.625 142 145.625 C141.773125 145.068125 141.54625 144.51125 141.3125 143.9375 C139.62449964 140.96340412 137.53323483 138.90491135 135 136.625 C134.34 136.625 133.68 136.625 133 136.625 C133 135.965 133 135.305 133 134.625 C118.44639436 124.14362742 100.92523584 117.32837717 83.28125 114.40625 C82.01796875 114.19613281 80.7546875 113.98601562 79.453125 113.76953125 C78.47569336 113.61025146 78.47569336 113.61025146 77.47851562 113.44775391 C75.53175396 113.13018 73.58617495 112.80538347 71.640625 112.48046875 C59.84407518 110.53427683 48.00710446 108.89454872 36.125 107.5625 C35.38596436 107.47943604 34.64692871 107.39637207 33.88549805 107.31079102 C27.84806783 106.66001555 21.81003424 106.24798181 15.74462891 105.96655273 C12.69230673 105.81903012 9.72474103 105.58273546 6.70257568 105.11869812 C3.08233426 104.63597838 -0.36073564 104.4914432 -4.01074219 104.47973633 C-4.67374832 104.47637772 -5.33675446 104.4730191 -6.01985168 104.46955872 C-8.19554567 104.46012263 -10.37116186 104.45810829 -12.546875 104.45703125 C-14.08319122 104.45380997 -15.61950714 104.45044528 -17.15582275 104.44694519 C-20.37683825 104.44096956 -23.59782701 104.43910331 -26.81884766 104.43969727 C-30.08485508 104.43977806 -33.35072088 104.43291033 -36.61669922 104.41918945 C-61.88002307 104.22687608 -61.88002307 104.22687608 -87 106.625 Z M145 238.625 C140.6971137 245.04049473 141.41010812 256.98440102 142.484375 264.43359375 C143.89270334 270.41898921 146.16759849 276.17611997 149 281.625 C149.66 281.625 150.32 281.625 151 281.625 C151.226875 282.181875 151.45375 282.73875 151.6875 283.3125 C153.37550036 286.28659588 155.46676517 288.34508865 158 290.625 C158.66 290.625 159.32 290.625 160 290.625 C160 291.285 160 291.945 160 292.625 C161.485 293.12 161.485 293.12 163 293.625 C163.39942054 275.09632472 162.35976298 255.21627468 151 239.625 C148.1253792 237.58696844 148.1253792 237.58696844 145 238.625 Z M-182 255.625 C-182.99 256.285 -183.98 256.945 -185 257.625 C-185 258.285 -185 258.945 -185 259.625 C-185.66 259.625 -186.32 259.625 -187 259.625 C-191.54765026 265.0261682 -198 274.38366871 -198 281.625 C-186.63036619 278.96632137 -176.6084687 275.52784226 -169.625 265.6875 C-168.64489875 262.45316589 -168.58758253 259.98325656 -169 256.625 C-171.22976163 253.64380459 -171.22976163 253.64380459 -174 251.625 C-177.28019787 251.625 -179.3677775 253.7985599 -182 255.625 Z " fill="#ffffff" transform="translate(264,52.375)"/>
<path d="M0 0 C69.37648601 -0.74405917 69.37648601 -0.74405917 82.9185791 12.22717285 C85.4185791 15.03967285 85.4185791 15.03967285 85.4185791 17.03967285 C86.0785791 17.03967285 86.7385791 17.03967285 87.4185791 17.03967285 C88.52546455 19.17571303 89.60238444 21.32084854 90.6685791 23.47717285 C90.96893066 24.05016113 91.26928223 24.62314941 91.57873535 25.21350098 C98.25882133 38.92899665 99.38882591 54.8843531 100.6685791 69.85217285 C100.75263 70.7974585 100.83668091 71.74274414 100.92327881 72.7166748 C102.10331358 86.15785427 102.79573286 99.54619736 102.7935791 113.03967285 C102.79539185 113.77303864 102.79720459 114.50640442 102.79907227 115.26199341 C102.79394492 133.37253111 100.6206109 151.42421597 87.6685791 165.10217285 C85.4185791 167.03967285 85.4185791 167.03967285 83.4185791 167.03967285 C83.4185791 167.69967285 83.4185791 168.35967285 83.4185791 169.03967285 C70.19993932 176.8929237 56.52074058 178.1363361 41.39831543 178.69812012 C40.5812915 178.72962158 39.76426758 178.76112305 38.92248535 178.7935791 C38.19875732 178.81750732 37.4750293 178.84143555 36.72937012 178.86608887 C34.31765468 179.01165164 34.31765468 179.01165164 31.56018066 179.52160645 C5.89827926 183.7533872 -21.35436773 182.25775939 -47.29735947 182.28599167 C-49.7577536 182.28965622 -52.21811419 182.29697218 -54.67849731 182.30508423 C-58.62311308 182.31694233 -62.56757301 182.31706572 -66.51219559 182.3083744 C-67.97676124 182.30636036 -69.44133521 182.30743924 -70.90589523 182.31197166 C-88.07737486 182.35570235 -105.83136593 180.541242 -120.5814209 171.03967285 C-121.51147949 170.47699707 -121.51147949 170.47699707 -122.46032715 169.9029541 C-123.87934164 169.01730468 -125.23912973 168.0377868 -126.5814209 167.03967285 C-126.5814209 166.37967285 -126.5814209 165.71967285 -126.5814209 165.03967285 C-127.2414209 165.03967285 -127.9014209 165.03967285 -128.5814209 165.03967285 C-128.5814209 164.37967285 -128.5814209 163.71967285 -128.5814209 163.03967285 C-129.2414209 163.03967285 -129.9014209 163.03967285 -130.5814209 163.03967285 C-142.88849745 146.82221976 -145.56657832 128.41704117 -145.96813965 108.56311035 C-145.99366409 107.36143219 -146.01918854 106.15975403 -146.04548645 104.92166138 C-146.09736214 102.3783637 -146.14680434 99.83501537 -146.19396973 97.29162598 C-146.26774465 93.47551575 -146.35885186 89.66007564 -146.45056152 85.84436035 C-146.944263 62.17808781 -147.02205108 40.25482203 -135.5814209 19.03967285 C-134.9214209 19.03967285 -134.2614209 19.03967285 -133.5814209 19.03967285 C-133.31845215 18.44283691 -133.0554834 17.84600098 -132.7845459 17.2310791 C-129.26141095 10.81394045 -122.22454032 7.32994431 -115.5814209 4.97717285 C-106.08143422 2.53082435 -96.42381252 1.88494659 -86.66345215 1.51623535 C-85.58627426 1.47462784 -84.50909637 1.43302032 -83.39927673 1.39015198 C-69.39943989 0.88316999 -55.39300436 0.69214594 -41.38598251 0.50683975 C-39.11181677 0.47674805 -36.83766172 0.44592693 -34.56350708 0.41500854 C-23.04251188 0.25953159 -11.5213315 0.12762646 0 0 Z M-93.87683105 12.86877441 C-94.81986273 12.93783871 -95.7628944 13.006903 -96.73450279 13.07806015 C-104.83382278 13.79928996 -112.94047494 15.36116054 -119.7064209 20.10217285 C-120.45149902 20.60877441 -121.19657715 21.11537598 -121.9642334 21.6373291 C-122.49790527 22.10010254 -123.03157715 22.56287598 -123.5814209 23.03967285 C-123.5814209 23.69967285 -123.5814209 24.35967285 -123.5814209 25.03967285 C-124.2414209 25.03967285 -124.9014209 25.03967285 -125.5814209 25.03967285 C-127.858771 27.85477279 -127.858771 27.85477279 -127.5814209 31.03967285 C-128.2414209 31.03967285 -128.9014209 31.03967285 -129.5814209 31.03967285 C-136.28397632 45.93848566 -134.99458274 64.1461712 -134.8626709 80.05700684 C-134.83133028 83.86317781 -134.82166339 87.66893193 -134.8157959 91.47521973 C-134.80662895 93.94071948 -134.79625416 96.40621511 -134.7845459 98.8717041 C-134.78029602 99.98664749 -134.77604614 101.10159088 -134.77166748 102.25032043 C-134.61626736 119.69968502 -132.87641756 135.03681457 -125.5814209 151.03967285 C-124.9214209 151.03967285 -124.2614209 151.03967285 -123.5814209 151.03967285 C-123.32103027 151.63650879 -123.06063965 152.23334473 -122.7923584 152.8482666 C-121.50177594 155.18380454 -120.25916307 156.42143417 -118.2064209 158.10217285 C-117.62118652 158.58814941 -117.03595215 159.07412598 -116.4329834 159.5748291 C-115.82196777 160.05822754 -115.21095215 160.54162598 -114.5814209 161.03967285 C-113.63976074 161.82277832 -113.63976074 161.82277832 -112.67907715 162.6217041 C-110.2904065 164.23639208 -108.17144768 164.91798175 -105.3939209 165.66467285 C-100.66995209 166.95114166 -100.66995209 166.95114166 -99.5814209 168.03967285 C-88.47817897 171.07645697 -76.99875803 171.10514572 -65.5814209 171.0826416 C-64.49816025 171.08125687 -63.4148996 171.07987213 -62.29881287 171.07844543 C-48.24635523 171.04782248 -34.19500115 170.92078959 -20.1439209 170.72717285 C-19.44556374 170.71771637 -18.74720657 170.70825989 -18.02768707 170.69851685 C2.4530419 170.4159382 22.76123323 169.73082194 43.12609863 167.38220215 C47.86454243 166.88924377 52.6121489 166.60640707 57.36779785 166.3338623 C64.72773265 165.62413748 70.95794557 162.44618872 77.4185791 159.03967285 C77.4185791 158.37967285 77.4185791 157.71967285 77.4185791 157.03967285 C78.32930176 156.6529541 78.32930176 156.6529541 79.25842285 156.25842285 C84.20700575 153.46645565 86.42418683 147.55924337 88.1060791 142.35217285 C88.5734307 140.58898272 89.00991052 138.81738119 89.4185791 137.03967285 C89.6248291 136.14248535 89.8310791 135.24529785 90.0435791 134.32092285 C93.43947897 116.39811799 91.33766075 97.65728218 90.1060791 79.60217285 C90.01793442 78.25719223 90.01793442 78.25719223 89.92800903 76.88504028 C88.40911959 44.95903922 88.40911959 44.95903922 72.7935791 18.53967285 C63.29520676 10.86962571 49.7197744 11.7398189 38.09289551 11.78088379 C36.84193085 11.77737915 35.59096619 11.77387451 34.30209351 11.77026367 C30.91290167 11.76303836 27.52395854 11.76463719 24.13478136 11.77102184 C20.54793035 11.77615456 16.96108858 11.7713695 13.37423706 11.76824951 C7.34423972 11.76462604 1.31429159 11.76936123 -4.71569824 11.77893066 C-11.61947789 11.78976251 -18.52313886 11.78632159 -25.42691553 11.77527785 C-31.41139764 11.76609869 -37.39584473 11.76497219 -43.38033164 11.77015519 C-46.92889118 11.77322378 -50.4773957 11.77383067 -54.02595139 11.76708221 C-67.33521265 11.74542406 -80.60127865 11.84039507 -93.87683105 12.86877441 Z " fill="#ffffff" transform="translate(271.5814208984375,200.9603271484375)"/>
<path d="M0 0 C6.72 0.72 6.72 0.72 8 2 C8.11424597 3.97603209 8.22148427 5.95276382 8.29003906 7.9309082 C8.69120954 21.66227638 8.69120954 21.66227638 14.0625 34.0625 C28.43562815 43.54264835 56.64795217 39.15681782 73.04492188 39.13037109 C76.99352862 39.12500879 80.94202167 39.13035003 84.890625 39.13671875 C96.03910406 39.14034439 107.17856449 39.11115719 118.31640625 38.58203125 C119.08021606 38.54695465 119.84402588 38.51187805 120.63098145 38.47573853 C129.48671941 37.98327007 140.09572399 37.17130845 148 33 C150.49578835 29.71725137 150.23726114 26.3830334 150.1875 22.375 C150.18105469 21.22773438 150.17460937 20.08046875 150.16796875 18.8984375 C150.19483817 16.0607447 150.19483817 16.0607447 149 14 C148.73859126 10.92844731 148.56095252 8.800616 150.0625 6.0625 C153.24956385 4.31475531 155.60278355 5.07348642 159 6 C163.55504569 11.38323582 162.44310702 22.43699978 162 29 C161.07439099 35.05467179 159.43095546 40.02414774 154.37890625 43.7578125 C138.61852798 51.98736963 117.76788762 51.31493191 100.4453125 51.265625 C98.72533107 51.266979 97.00535002 51.26892556 95.28536987 51.27142334 C91.71055394 51.27434175 88.13583915 51.27018554 84.56103516 51.26074219 C80.04066097 51.24936558 75.52052249 51.25611599 71.0001564 51.26760101 C39.12202394 51.336928 39.12202394 51.336928 27.0546875 50.171875 C26.32976105 50.10276917 25.60483459 50.03366333 24.85794067 49.96246338 C18.1865052 49.16512897 10.31404111 47.28075534 5 43 C-0.8327094 35.34775735 -2.33987051 28.00209319 -2.75 18.5625 C-2.80542969 17.64662109 -2.86085937 16.73074219 -2.91796875 15.78710938 C-3.17399456 10.38341317 -2.88956214 6.08675605 -1 1 C-0.67 0.67 -0.34 0.34 0 0 Z " fill="#ffffff" transform="translate(175,293)"/>
<path d="M0 0 C0 0.66 0 1.32 0 2 C0.66 2 1.32 2 2 2 C9.3541778 10.6764807 15.62736351 22.32490211 15.24609375 33.96484375 C14.42184953 40.78121258 11.00473203 47.30878947 6 52 C2.39054389 53.16236722 0.4343504 53.7171752 -3 52 C-4.55854182 48.88291635 -3.68784644 46.3141692 -3 43 C-2.34 43 -1.68 43 -1 43 C-1 42.34 -1 41.68 -1 41 C-0.34 41 0.32 41 1 41 C2.78842556 34.77686064 3.21069423 27.75451487 0.375 21.8125 C-1.69913914 18.19394791 -4.21626705 14.90948995 -6.828125 11.6640625 C-8 10 -8 10 -8 8 C-8.66 8 -9.32 8 -10 8 C-10.25 5.1875 -10.25 5.1875 -10 2 C-6.92702006 -1.66393762 -4.38919352 -1.09729838 0 0 Z " fill="#ffffff" transform="translate(282,244)"/>
<path d="M0 0 C1.90625 1.8984375 1.90625 1.8984375 3.5 4.375 C4.08007812 5.27476562 4.66015625 6.17453125 5.2578125 7.1015625 C11.56330369 17.59186399 15.02337363 25.54307275 14 38 C12.96907202 42.0835459 11.34383043 45.48425436 9 49 C8.34 49 7.68 49 7 49 C7 49.66 7 50.32 7 51 C6.34 51 5.68 51 5 51 C5 51.66 5 52.32 5 53 C2.69 53 0.38 53 -2 53 C-3.625 50.25 -3.625 50.25 -5 47 C-4.1875 44.625 -4.1875 44.625 -3 43 C-2.34 43 -1.68 43 -1 43 C-0.690625 42.195625 -0.38125 41.39125 -0.0625 40.5625 C1 38 1 38 2 37 C3.25294025 29.43477851 1.03258199 24.13472905 -2.58984375 17.56640625 C-4 15 -4 15 -5 12 C-5.66 12 -6.32 12 -7 12 C-9.40590072 9.59409928 -9.97556644 8.30541954 -10.25 4.875 C-10 2 -10 2 -9 0 C-5.4155921 -1.19480263 -3.62299423 -0.9991247 0 0 Z " fill="#ffffff" transform="translate(219,244)"/>
<path d="M0 0 C0.66 0.33 1.32 0.66 2 1 C-1.3 4.3 -4.6 7.6 -8 11 C-8 8 -8 8 -7 6 C-6.34 6 -5.68 6 -5 6 C-4.731875 5.38125 -4.46375 4.7625 -4.1875 4.125 C-3 2 -3 2 0 0 Z " fill="#ffffff" transform="translate(76,298)"/>
</svg>
